<svg width="215" height="44" viewBox="0 0 215 44" fill="none" xmlns="http://www.w3.org/2000/svg">
<path d="M32.584 5.44957C32.5608 5.4264 32.5144 5.40322 32.4913 5.35687C32.5144 5.40322 32.5608 5.4264 32.584 5.44957Z" fill="#FFFAF7"/>
<path d="M32.1437 5.10192C32.2596 5.19462 32.3754 5.28732 32.4913 5.35684C32.3754 5.28732 32.2596 5.19462 32.1437 5.10192C32.1205 5.07874 32.0742 5.05557 32.051 5.03239L32.0046 5.00922L32.051 5.03239C32.0742 5.05557 32.1205 5.07874 32.1437 5.10192Z" fill="#FFFAF7"/>
<path d="M31.9583 4.96291L31.8887 4.91656L31.9583 4.96291Z" fill="#FFFAF7"/>
<path d="M31.7033 4.77751C31.7265 4.80068 31.7265 4.80068 31.7497 4.82386C31.7497 4.80068 31.7265 4.80068 31.7033 4.77751L31.657 4.75433L31.7033 4.77751Z" fill="#FFFAF7"/>
<path d="M31.6802 4.75434C31.6339 4.73116 31.6107 4.70799 31.5875 4.68481C31.6107 4.70799 31.6339 4.73116 31.6802 4.75434Z" fill="#FFFAF7"/>
<path d="M31.263 4.47626C31.2167 4.45309 31.1935 4.42991 31.1472 4.40674C31.1935 4.42991 31.2399 4.45309 31.263 4.47626Z" fill="#FFFAF7"/>
<path d="M23.2909 1.27808C23.2213 1.25491 23.1286 1.25491 23.0591 1.23173C23.0128 1.23173 22.9896 1.23173 22.9432 1.20856C22.9896 1.20856 23.0128 1.20856 23.0591 1.23173C23.1286 1.23173 23.2213 1.25491 23.2909 1.27808Z" fill="#FFFAF7"/>
<path d="M28.4589 2.87718C28.2503 2.78448 28.0649 2.69178 27.8795 2.62225C28.0881 2.69178 28.2735 2.78448 28.4589 2.87718Z" fill="#FFFAF7"/>
<path d="M30.7764 4.15179C30.8227 4.17497 30.8691 4.19814 30.8922 4.22132C30.8691 4.19814 30.8227 4.17497 30.7764 4.15179Z" fill="#FFFAF7"/>
<path d="M26.0719 1.92699C26.0255 1.90381 25.9792 1.90381 25.9328 1.88064C25.8865 1.85746 25.8401 1.85746 25.7938 1.83429C25.8401 1.85746 25.8865 1.85746 25.9328 1.88064C25.956 1.90381 26.0023 1.92699 26.0719 1.92699Z" fill="#FFFAF7"/>
<path d="M25.3071 1.71843C25.2839 1.69525 25.2607 1.69525 25.2375 1.69525H25.2144H25.2375C25.2607 1.69525 25.2839 1.69525 25.3071 1.71843Z" fill="#FFFAF7"/>
<path d="M27.7404 2.55273C27.8099 2.57591 27.8563 2.59908 27.8795 2.62226C27.8331 2.59908 27.8099 2.57591 27.7404 2.55273Z" fill="#FFFAF7"/>
<path d="M30.2665 3.82731L30.3592 3.89684C30.4287 3.94319 30.4983 3.96636 30.5446 4.01271C30.4751 3.96636 30.4287 3.94319 30.3592 3.89684L30.2665 3.82731C30.2433 3.82731 30.2433 3.80414 30.2202 3.80414C30.2433 3.82731 30.2433 3.82731 30.2665 3.82731Z" fill="#FFFAF7"/>
<path d="M32.7462 5.58859C32.6999 5.54224 32.6535 5.51907 32.6072 5.47272C32.6535 5.51907 32.6999 5.54224 32.7462 5.58859Z" fill="#FFFAF7"/>
<path d="M29.9884 3.66506C30.0348 3.68824 30.0811 3.71141 30.1275 3.73459C30.0811 3.71141 30.0348 3.68824 29.9884 3.66506L29.9652 3.64189C29.9421 3.64189 29.9421 3.61871 29.9189 3.61871C29.9421 3.61871 29.9421 3.64189 29.9652 3.64189L29.9884 3.66506Z" fill="#FFFAF7"/>
<path d="M28.5052 2.90031L28.6674 2.99301C28.7369 3.01619 28.8065 3.06254 28.8528 3.08571C28.7833 3.06254 28.7138 3.01619 28.6674 2.99301L28.5052 2.90031C28.5052 2.90031 28.5052 2.87714 28.5052 2.90031C28.5052 2.87714 28.5052 2.90031 28.5052 2.90031Z" fill="#FFFAF7"/>
<path d="M27.022 2.27458C27.1611 2.32093 27.3233 2.39045 27.5087 2.45998C27.5319 2.45998 27.5319 2.45998 27.555 2.48315C27.5319 2.48315 27.5319 2.48315 27.5087 2.45998C27.3233 2.39045 27.1611 2.32093 27.022 2.27458L26.9293 2.2514H26.9061H26.9293L27.022 2.27458Z" fill="#FFFAF7"/>
<path d="M0.208557 18.1031C0.208557 18.0799 0.208557 18.0336 0.231732 18.0104V17.9872V18.0104C0.208557 18.0336 0.208557 18.0568 0.208557 18.1031Z" fill="#FFFAF7"/>
<path d="M0.115845 18.7752C0.115845 18.752 0.115845 18.7289 0.115845 18.7057C0.13902 18.7289 0.115845 18.752 0.115845 18.7752Z" fill="#FFFAF7"/>
<path d="M0.0463683 19.54V19.5168C0.0463683 19.5168 0.0463683 19.5168 0.0463683 19.54C0.0463683 19.6095 0.0231934 19.7022 0.0231934 19.7717C0.0463683 19.679 0.0463683 19.6095 0.0463683 19.54Z" fill="#FFFAF7"/>
<path d="M10.4519 27.7207C10.4519 27.7439 10.4751 27.7671 10.4751 27.7671C10.4519 27.7671 10.4519 27.7439 10.4519 27.7207Z" fill="#FFFAF7"/>
<path d="M20.7416 1.02313C21.1819 1.04631 21.6454 1.06948 22.0857 1.11583C21.6454 1.06948 21.2051 1.02313 20.7416 1.02313Z" fill="#FFFAF7"/>
<path d="M24.1947 1.44031C24.3337 1.46348 24.4496 1.48666 24.5655 1.53301C24.4496 1.48666 24.3106 1.46348 24.1947 1.44031Z" fill="#FFFAF7"/>
<path d="M28.8992 3.08575C29.2004 3.2248 29.4785 3.38703 29.7566 3.54925C29.4785 3.38703 29.2004 3.2248 28.8992 3.08575Z" fill="#FFFAF7"/>
<path d="M33.0243 5.82037C32.978 5.79719 32.9548 5.75084 32.9085 5.72767L32.8389 5.65814L32.9085 5.72767C32.9548 5.75084 33.0012 5.79719 33.0243 5.82037Z" fill="#FFFAF7"/>
<path d="M13.4647 9.71381C15.1796 7.88298 17.2654 6.44614 19.6292 5.54231C20.3476 5.26421 21.0661 5.03246 21.8077 4.87024C21.0661 5.05564 20.3476 5.26421 19.6292 5.54231C17.2422 6.46931 15.1564 7.88298 13.4647 9.71381Z" fill="#FFFAF7"/>
<path d="M17.0104 35.183C15.0406 34.0011 13.3256 32.402 11.9815 30.4785C11.4948 29.7832 11.0776 29.0648 10.7068 28.3C11.0776 29.0416 11.4948 29.7832 11.9815 30.4785C13.3256 32.3788 15.0406 33.9779 17.0104 35.183Z" fill="#FFFAF7"/>
<path d="M4.28737 31.2665C1.5759 28.5782 0.0695249 25.0092 0 21.2085V21.1622V21.0927C0 21.0695 0 21.0463 0 21.0463C0 21.0695 0 21.0927 0 21.0927C0 21.1158 0 21.139 0 21.1622V21.2085C0.0695249 25.0092 1.5759 28.5782 4.28737 31.2665C6.99884 33.9316 10.591 35.4148 14.4148 35.4148C15.0174 35.4148 15.6199 35.3685 16.2225 35.2989C15.6199 35.3685 15.0174 35.4148 14.4148 35.4148C10.591 35.4148 6.99884 33.9316 4.28737 31.2665Z" fill="#FFFAF7"/>
<path d="M33.4647 6.21436C33.511 6.26071 33.5342 6.28389 33.5805 6.30706C33.5574 6.28389 33.511 6.26071 33.4647 6.21436L33.4183 6.16801L33.3951 6.14484L33.4183 6.16801L33.4647 6.21436Z" fill="#FFFAF7"/>
<path d="M34.0209 6.72424C33.9977 6.70106 33.9745 6.67789 33.9513 6.65471C33.9282 6.63154 33.8818 6.58519 33.8586 6.56201C33.8818 6.58519 33.9282 6.63154 33.9513 6.65471C33.9513 6.67789 33.9977 6.70106 34.0209 6.72424Z" fill="#FFFAF7"/>
<path d="M33.7196 6.44609C33.6964 6.42292 33.6501 6.39974 33.6269 6.35339C33.6501 6.37657 33.6732 6.42292 33.7196 6.44609Z" fill="#FFFAF7"/>
<path d="M0.23175 17.9409V17.9872C0.23175 18.0104 0.23175 18.0568 0.208575 18.0799V18.1031C0.208575 18.1263 0.208575 18.1495 0.208575 18.1726V18.219V18.2422V18.2653V18.2885C0.208575 18.358 0.1854 18.4276 0.1854 18.4971C0.1854 18.5666 0.162225 18.613 0.162225 18.6825C0.162225 18.7057 0.162225 18.7288 0.162225 18.752C0.162225 18.8215 0.13905 18.8911 0.13905 18.9606C0.13905 19.0069 0.13905 19.0765 0.115875 19.1228V19.1692C0.115875 19.1923 0.115875 19.2155 0.115875 19.2387C0.115875 19.2619 0.115875 19.285 0.115875 19.3082C0.115875 19.3314 0.115875 19.3314 0.115875 19.3546C0.115875 19.3777 0.115875 19.3777 0.115875 19.4009C0.115875 19.4241 0.115875 19.4473 0.115875 19.4704V19.4936C0.115875 19.5631 0.0926999 19.6558 0.0926999 19.7254C0.0926999 19.7717 0.0926999 19.7949 0.0926999 19.8412C0.0926999 19.8876 0.0926999 19.9108 0.0926999 19.9571C0.0926999 19.9571 0.0926999 19.9571 0.0926999 19.9803V20.0035V20.0266V20.0498C0.0926999 20.0962 0.0926999 20.1425 0.0926999 20.1889C0.0926999 20.212 0.0926999 20.2352 0.0926999 20.2352C0.0926999 20.3279 0.0926999 20.3974 0.0926999 20.467C0.0926999 20.4901 0.0926999 20.4901 0.0926999 20.5133V20.5365C0.0926999 20.606 0.0926999 20.6755 0.0926999 20.7219V20.7682V20.7914V20.8609C0 20.9305 0 20.9305 0 20.9536C0 20.9768 0 20.9768 0 21C0 21.0232 0 21.0232 0 21.0463C0 21.0695 0 21.0927 0 21.0927V21.1622V21.2086C0.0463499 25.0093 1.5759 28.5782 4.28737 31.2433C6.99884 33.9084 10.591 35.3916 14.4148 35.3916C15.0174 35.3916 15.6199 35.3453 16.2225 35.2758C16.5006 35.2526 16.7555 35.2062 17.0336 35.1599C15.0637 33.978 13.3488 32.3789 12.0046 30.4554C11.518 29.7601 11.1008 29.0417 10.73 28.2769C10.6373 28.1147 10.5678 27.9293 10.4983 27.7671C10.4983 27.7439 10.4751 27.7207 10.4751 27.7207C9.54809 25.6118 9.06141 23.3407 9.06141 21C9.06141 17.5933 10.0811 14.3256 12.0278 11.5214C12.4681 10.8725 12.9548 10.27 13.4878 9.71377C15.2028 7.88295 17.2885 6.4461 19.6524 5.54228C20.3708 5.26418 21.0892 5.03243 21.8308 4.8702C23.0591 4.56893 24.3337 4.42988 25.6315 4.42988C28.6443 4.42988 31.5411 5.241 34.0672 6.7242C34.044 6.70103 34.0209 6.67785 33.9977 6.65467C33.9745 6.6315 33.9282 6.58515 33.905 6.56198L33.8818 6.5388C33.8586 6.51562 33.8123 6.49245 33.7891 6.4461C33.7659 6.42292 33.7196 6.39975 33.6964 6.3534C33.6964 6.3534 33.6964 6.3534 33.6732 6.33022C33.6269 6.30705 33.6037 6.2607 33.5574 6.23753L33.511 6.19117L33.4878 6.168C33.4415 6.12165 33.3951 6.0753 33.3256 6.02895C33.2561 5.9826 33.2097 5.93625 33.1634 5.8899C33.1402 5.86673 33.117 5.86673 33.117 5.84355C33.0707 5.82038 33.0475 5.77403 33.0012 5.75085L32.9316 5.68133L32.8853 5.63498L32.8621 5.6118L32.8389 5.58863C32.7926 5.54228 32.7462 5.5191 32.6999 5.47275C32.6767 5.44958 32.6304 5.4264 32.6072 5.38005C32.4913 5.28735 32.3754 5.19465 32.2827 5.12513C32.2596 5.10195 32.2132 5.07878 32.19 5.0556L32.1437 5.03243L32.1205 5.00925C32.1205 5.00925 32.1205 5.00925 32.0973 5.00925L32.0278 4.9629L32.0046 4.93973L31.9119 4.8702L31.8888 4.84703C31.8656 4.82385 31.8656 4.82385 31.8424 4.80068L31.8192 4.7775C31.7961 4.75433 31.7497 4.73115 31.7265 4.70798L31.7034 4.6848C31.6107 4.61528 31.5411 4.56893 31.4484 4.4994C31.4021 4.47623 31.3789 4.45305 31.3326 4.42988L31.3094 4.4067C31.263 4.36035 31.1935 4.33718 31.1472 4.29083C31.124 4.29083 31.124 4.26765 31.1008 4.26765C31.0545 4.24448 31.0081 4.2213 30.9849 4.19813C30.9154 4.15178 30.8691 4.1286 30.7995 4.08225C30.73 4.0359 30.6837 4.01273 30.6141 3.96638L30.5214 3.89685C30.4983 3.89685 30.4983 3.87368 30.4751 3.87368C30.4519 3.87368 30.4287 3.8505 30.4056 3.8505C30.3824 3.8505 30.3824 3.82733 30.3592 3.82733C30.3129 3.80415 30.2665 3.78098 30.2202 3.7578L30.197 3.73463C30.1738 3.73463 30.1738 3.71145 30.1506 3.71145C30.1043 3.68828 30.0579 3.6651 30.0348 3.64193C30.0348 3.64193 30.0348 3.64193 30.0116 3.64193C29.7335 3.4797 29.4322 3.34065 29.1541 3.17843H29.1309C29.0614 3.15525 28.9919 3.1089 28.9455 3.08573L28.5052 2.90033C28.5052 2.90033 28.5052 2.90033 28.482 2.90033C28.2735 2.80763 28.0881 2.71493 27.9027 2.6454C27.8563 2.62223 27.81 2.59905 27.7636 2.59905H27.7404H27.7173L27.6477 2.57588C27.6246 2.57588 27.6014 2.5527 27.555 2.5527C27.5319 2.5527 27.5319 2.5527 27.5087 2.52953C27.3233 2.46 27.1611 2.39048 27.022 2.34413L26.9293 2.32095H26.9061L26.8134 2.29778C26.5585 2.20508 26.3268 2.11238 26.0487 2.04286C26.0487 2.04286 26.0487 2.04286 26.0255 2.04286C25.9791 2.01968 25.9328 2.01968 25.8864 1.99651C25.8401 1.97333 25.7937 1.97333 25.7474 1.95016C25.7242 1.95016 25.6779 1.92698 25.6547 1.92698C25.5388 1.90381 25.4461 1.85746 25.3302 1.83428C25.3071 1.83428 25.3071 1.83428 25.2839 1.83428C25.2839 1.69523 25.2607 1.69523 25.2375 1.69523H25.2144H25.1912C24.9826 1.64888 24.774 1.57936 24.5423 1.53301C24.4264 1.50983 24.2874 1.48666 24.1715 1.44031C23.9629 1.39396 23.7312 1.34761 23.5226 1.30126C23.4531 1.27808 23.3604 1.27808 23.2908 1.25491C23.2213 1.23173 23.1286 1.23173 23.0591 1.20856C23.0127 1.20856 22.9896 1.20856 22.9432 1.18538C22.8969 1.18538 22.8505 1.16221 22.8042 1.16221C22.5724 1.13903 22.3407 1.09268 22.1089 1.06951C21.6686 1.02316 21.2051 0.999982 20.7648 0.976807C20.5098 0.999982 20.2549 0.999982 20 0.999982C19.5829 0.999982 19.1425 1.02316 18.7254 1.04633C18.679 1.04633 18.6327 1.04633 18.5863 1.04633C18.1228 1.06951 17.6593 1.11586 17.1958 1.18538C17.1031 1.20856 17.0336 1.20856 16.9409 1.23173L0.23175 17.9409Z" fill="#005FA3"/>
<path d="M39.7682 24.0359V24.0127C39.7682 23.9896 39.7682 23.9664 39.7914 23.92V23.8969C39.7914 23.8505 39.8146 23.8273 39.8146 23.781V23.7578V23.7346C39.8146 23.7115 39.8146 23.7115 39.8146 23.7115L39.8378 23.5956L39.8609 23.5029C39.8609 23.4102 39.8841 23.3407 39.8841 23.2711C39.8841 23.2016 39.9073 23.1321 39.9073 23.0626C39.9073 22.993 39.9305 22.9467 39.9305 22.9003V22.854C39.9305 22.8076 39.9305 22.7845 39.9305 22.7381V22.7149V22.6918C39.9305 22.6454 39.9305 22.5991 39.9536 22.5295V22.5064C39.9536 22.4368 39.9768 22.3673 39.9768 22.2746C39.9768 22.2051 39.9768 22.1124 40 22.0429V22.0197V21.9965V21.9733C40 21.9038 40 21.8343 40 21.7879C40 21.6952 40 21.6257 40 21.533V21.4867C40 21.4171 40 21.3708 40 21.3013V21.1622C40 21.1159 40 21.0695 40 21C40 20.9536 40 20.8841 40 20.8378V20.7914C39.9536 16.9907 38.4241 13.4218 35.7126 10.7567C33.0011 8.09153 29.409 6.60834 25.5851 6.60834C24.7045 6.60834 23.8239 6.67786 22.9896 6.84009C24.9594 8.02201 26.6744 9.62108 28.0185 11.5446C29.9652 14.3256 30.9849 17.5933 30.9849 21.0232C30.9849 24.4299 29.9652 27.6976 28.0185 30.5017C26.1182 33.2132 23.4762 35.299 20.394 36.4809C18.4936 37.2225 16.4774 37.5933 14.4148 37.5933C11.4021 37.5933 8.5052 36.7821 5.97913 35.299H6.0023C6.02548 35.3221 6.02548 35.3221 6.04865 35.3453L6.095 35.3916C6.11818 35.4148 6.16453 35.4612 6.1877 35.4844C6.23405 35.5307 6.30358 35.6002 6.3731 35.6466C6.41945 35.6929 6.4658 35.7161 6.48898 35.7624C6.5585 35.832 6.62803 35.9015 6.72073 35.971C6.76708 36.0174 6.81343 36.0637 6.85978 36.1101L6.88295 36.1333L7.022 36.2491L7.04517 36.2723C7.09152 36.2955 7.1147 36.3418 7.16105 36.365L7.18422 36.3882L7.2074 36.4114C7.23057 36.4345 7.27692 36.4809 7.32327 36.504H7.34645H7.36962C7.3928 36.5272 7.43915 36.5504 7.46232 36.5736C7.5782 36.6663 7.6709 36.7358 7.78677 36.8285C7.80995 36.8517 7.83312 36.8748 7.8563 36.8748C7.87947 36.898 7.90265 36.9212 7.949 36.9444C7.97217 36.9676 7.97217 36.9675 7.99535 36.9675L8.01852 36.9907C8.06487 37.0139 8.11122 37.0602 8.15757 37.0834L8.20392 37.1066C8.2271 37.1298 8.25027 37.1298 8.27345 37.1529C8.29662 37.1761 8.34297 37.1993 8.36615 37.2225L8.4125 37.2456C8.5052 37.3152 8.57472 37.3615 8.66742 37.431C8.71377 37.4542 8.73695 37.4774 8.7833 37.5006L8.80647 37.5237L8.89917 37.5933L8.99187 37.6628C9.03822 37.686 9.08457 37.7323 9.1541 37.7555C9.20045 37.7787 9.26997 37.825 9.31632 37.8482H9.50172L9.73347 38.0568C9.75665 38.0799 9.803 38.1031 9.84935 38.1263C9.91887 38.1726 9.9884 38.219 10.0579 38.2422C10.1043 38.2653 10.1738 38.3117 10.2201 38.3349C10.5214 38.4971 10.8227 38.6593 11.124 38.7984C11.1935 38.8215 11.263 38.8679 11.3325 38.8911C11.3325 38.8911 11.3557 38.8911 11.3557 38.9142C11.4252 38.9374 11.4716 38.9838 11.5411 39.0069C11.7265 39.0996 11.9119 39.1923 12.1205 39.2619C12.1668 39.285 12.2132 39.3082 12.2595 39.3314C12.2827 39.3314 12.2827 39.3546 12.3059 39.3546C12.3754 39.3777 12.4218 39.4009 12.4913 39.4241C12.6535 39.4936 12.8157 39.54 12.978 39.6095C13.0243 39.6327 13.0938 39.6558 13.1402 39.679C13.3951 39.7717 13.65 39.8644 13.8818 39.9339C13.9281 39.9571 13.9745 39.9571 14.0208 39.9803C14.0904 40.0035 14.1599 40.0266 14.2526 40.0498L14.3221 40.073C14.4148 40.0962 14.5075 40.1193 14.577 40.1425C14.6234 40.1657 14.6697 40.1657 14.7161 40.1889C15.2723 40.3279 15.8285 40.467 16.3847 40.5597C16.4542 40.5828 16.5237 40.5828 16.6164 40.606C16.7091 40.6292 16.7787 40.6292 16.8482 40.6524C16.9177 40.6755 17.0104 40.6755 17.0799 40.6755C18.0069 40.8146 18.9339 40.8609 19.8841 40.8609C20.8111 40.8609 21.7613 40.7914 22.6883 40.6755H22.7115C22.781 40.6755 22.8505 40.6524 22.9432 40.6524L39.6524 23.9432C39.7682 24.0359 39.7682 24.0359 39.7682 24.0359Z" fill="#222222"/>
<path d="M73.996 12.276L71.296 11.772V9.252H76.984C77.8 9.252 78.88 9.204 80.224 9.108C80.512 9.084 80.872 9.06 81.304 9.036C81.736 9.012 82.24 9 82.816 9C85.432 9 87.484 9.24 88.972 9.72C90.46 10.2 91.492 10.884 92.068 11.772C92.668 12.66 92.968 13.776 92.968 15.12C92.968 16.92 92.404 18.408 91.276 19.584C90.172 20.76 88.756 21.468 87.028 21.708C89.428 21.708 91.312 22.248 92.68 23.328C94.072 24.408 94.768 25.932 94.768 27.9C94.768 30.468 93.88 32.496 92.104 33.984C90.352 35.472 87.364 36.216 83.14 36.216C82.468 36.216 81.82 36.192 81.196 36.144C80.572 36.12 80.128 36.108 79.864 36.108C79 36.036 78.064 36 77.056 36H71.224V33.624L73.996 33.228V12.276ZM80.08 20.808C80.512 20.856 81.484 20.88 82.996 20.88C84.316 20.88 85.288 20.436 85.912 19.548C86.536 18.636 86.848 17.364 86.848 15.732C86.848 14.22 86.512 13.116 85.84 12.42C85.168 11.724 84.076 11.376 82.564 11.376C82.204 11.376 81.784 11.4 81.304 11.448C80.824 11.472 80.416 11.508 80.08 11.556V20.808ZM80.08 33.444C80.56 33.636 81.508 33.732 82.924 33.732C84.7 33.732 85.984 33.264 86.776 32.328C87.592 31.392 88 30.036 88 28.26C88 26.58 87.628 25.38 86.884 24.66C86.14 23.94 84.964 23.58 83.356 23.58C82.036 23.58 80.944 23.604 80.08 23.652V33.444ZM113.553 36.36C112.689 36.36 112.065 36.18 111.681 35.82C111.297 35.436 111.105 34.884 111.105 34.164V33.372C110.529 34.164 109.665 34.872 108.513 35.496C107.361 36.096 106.197 36.396 105.021 36.396C102.669 36.396 100.989 35.82 99.9807 34.668C98.9967 33.492 98.5047 31.536 98.5047 28.8V18.792L96.8127 18.324V16.02L103.581 15.552H103.617L104.409 16.056V28.944C104.409 30.504 104.601 31.596 104.985 32.22C105.369 32.82 106.053 33.12 107.037 33.12C108.381 33.12 109.509 32.664 110.421 31.752V18.792L108.189 18.252V16.02L115.317 15.552H115.425L116.289 16.056V33.516H118.197V35.82C117.381 35.988 116.625 36.12 115.929 36.216C115.257 36.312 114.465 36.36 113.553 36.36ZM122.105 10.008L119.549 9.54V7.344L126.785 6.48H126.893L127.937 7.236L127.973 15.048L127.685 18.252C128.429 17.556 129.413 16.944 130.637 16.416C131.861 15.864 133.205 15.588 134.669 15.588C136.181 15.588 137.357 15.864 138.197 16.416C139.037 16.968 139.625 17.808 139.961 18.936C140.297 20.064 140.465 21.564 140.465 23.436V33.3L142.661 33.624V36H132.653V33.624L134.561 33.3V23.472C134.561 21.792 134.381 20.628 134.021 19.98C133.661 19.308 132.929 18.972 131.825 18.972C131.153 18.972 130.481 19.128 129.809 19.44C129.137 19.728 128.573 20.088 128.117 20.52V33.3L130.097 33.624V36H120.233V33.624L122.105 33.3V10.008ZM156.188 36.396C152.156 36.396 149.168 35.184 147.224 32.76C145.28 30.312 144.308 26.952 144.308 22.68C144.308 19.92 144.812 17.508 145.82 15.444C146.852 13.356 148.292 11.748 150.14 10.62C151.988 9.492 154.148 8.928 156.62 8.928C160.748 8.928 163.784 10.08 165.728 12.384C167.696 14.664 168.68 17.928 168.68 22.176C168.68 24.984 168.164 27.468 167.132 29.628C166.1 31.764 164.636 33.432 162.74 34.632C160.868 35.808 158.684 36.396 156.188 36.396ZM156.512 11.304C154.784 11.304 153.44 12.252 152.48 14.148C151.544 16.044 151.076 18.876 151.076 22.644C151.076 26.484 151.544 29.34 152.48 31.212C153.416 33.06 154.748 33.984 156.476 33.984C158.18 33.984 159.5 32.976 160.436 30.96C161.396 28.92 161.876 26.004 161.876 22.212C161.876 18.372 161.42 15.6 160.508 13.896C159.596 12.168 158.264 11.304 156.512 11.304ZM173.196 19.764L171.072 19.116V16.308L177.624 15.516H177.732L178.668 16.272V17.604L178.632 18.432C179.472 17.64 180.54 16.968 181.836 16.416C183.132 15.864 184.488 15.588 185.904 15.588C187.344 15.588 188.472 15.852 189.288 16.38C190.128 16.884 190.728 17.7 191.088 18.828C191.472 19.956 191.664 21.492 191.664 23.436V33.3L193.68 33.588V36H183.888V33.624L185.652 33.3V23.472C185.652 22.32 185.568 21.432 185.4 20.808C185.256 20.16 184.992 19.692 184.608 19.404C184.224 19.116 183.672 18.972 182.952 18.972C181.848 18.972 180.6 19.488 179.208 20.52V33.3L181.188 33.624V36H171.216V33.624L173.196 33.3V19.764ZM205.359 36.396C202.071 36.396 199.635 35.472 198.051 33.624C196.467 31.752 195.675 29.208 195.675 25.992C195.675 23.808 196.083 21.924 196.899 20.34C197.715 18.756 198.855 17.556 200.319 16.74C201.807 15.9 203.547 15.48 205.539 15.48C208.059 15.48 209.979 16.116 211.299 17.388C212.643 18.66 213.339 20.46 213.387 22.788C213.387 24.324 213.279 25.56 213.063 26.496H201.795C201.915 28.536 202.407 30.096 203.271 31.176C204.159 32.232 205.395 32.76 206.979 32.76C207.867 32.76 208.791 32.616 209.751 32.328C210.735 32.016 211.527 31.668 212.127 31.284L213.135 33.48C212.511 34.176 211.443 34.836 209.931 35.46C208.443 36.084 206.919 36.396 205.359 36.396ZM207.663 24.12L207.699 22.608C207.699 21.096 207.495 19.944 207.087 19.152C206.679 18.36 205.983 17.964 204.999 17.964C203.991 17.964 203.211 18.408 202.659 19.296C202.107 20.16 201.807 21.768 201.759 24.12H207.663Z" fill="#005FA3"/>
</svg>
